<svg width="24" height="24" viewBox="0 0 24 24" fill="none" xmlns="http://www.w3.org/2000/svg">
<path d="M19.2004 1.31997L4.80039 7.07997C3.48039 7.55997 2.40039 9.23996 2.40039 10.68V21.12C2.40039 22.56 3.48039 23.28 4.80039 22.8L19.2004 17.04C20.5204 16.56 21.6004 14.88 21.6004 13.44V2.99997C21.6004 1.55997 20.5204 0.839966 19.2004 1.31997ZM19.9204 4.43997L12.7204 15.6L4.68039 10.2C4.56039 10.08 4.20039 9.71996 4.44039 9.35997C4.68039 8.87997 5.28039 9.11997 5.28039 9.11997L12.8404 11.88C12.8404 11.88 18.6004 4.31997 18.9604 3.83997C19.0804 3.59997 19.4404 3.47997 19.8004 3.71997C20.1604 3.95997 20.0404 4.31997 19.9204 4.43997Z" fill="#04C37F"/>
</svg>
