<svg xmlns="http://www.w3.org/2000/svg" version="1.1" xmlns:xlink="http://www.w3.org/1999/xlink" xmlns:svgjs="http://svgjs.dev/svgjs" width="1500" height="338" viewBox="0 0 1500 338"><g transform="matrix(1,0,0,1,0.010233243451466478,-0.6772210478030729)"><svg viewBox="0 0 354 80" data-background-color="#ffffff" preserveAspectRatio="xMidYMid meet" height="338" width="1500" xmlns="http://www.w3.org/2000/svg" xmlns:xlink="http://www.w3.org/1999/xlink"><g id="tight-bounds" transform="matrix(1,0,0,1,-0.002415045454540632,0.16028900539717483)"><svg viewBox="0 0 354.0048300909091 79.67942198920566" height="79.67942198920566" width="354.0048300909091"><g><svg viewBox="0 0 354.0048300909091 79.67942198920566" height="79.67942198920566" width="354.0048300909091"><g><svg viewBox="0 0 354.0048300909091 79.67942198920566" height="79.67942198920566" width="354.0048300909091"><g id="textblocktransform"><svg viewBox="0 0 354.0048300909091 79.67942198920566" height="79.67942198920566" width="354.0048300909091" id="textblock"><g><svg viewBox="0 0 354.0048300909091 52.72252999999999" height="52.72252999999999" width="354.0048300909091"><g><svg><g></g><g></g></svg></g><g><svg><g><svg></svg></g><g></g></svg></g><g id="text-0"><svg viewBox="0 0 354.0048300909091 52.72252999999999" height="52.72252999999999" width="354.0048300909091"><g transform="matrix(1,0,0,1,0,0)"><svg width="281.058735" viewBox="1.95 -33.9 182.84 34.3" height="52.72252999999999" data-palette-color="url(#9048d0bf-8c68-4608-b679-979cf17af9b3)"></svg></g><g><svg xmlns="http://www.w3.org/2000/svg" xmlns:xlink="http://www.w3.org/1999/xlink" version="1.1" x="294.161335" y="0" viewBox="6.3 11.5 87.4 77" style="enable-background:new 0 0 100 100;" xml:space="preserve" height="52.72252999999999" width="59.84349509090909" class="icon-dxe-0" data-fill-palette-color="accent" id="dxe-0"><path d="M72.3 12.3L71.9 11.5H28.2L6.3 50 28.1 88.5H71.8L93.7 50zM33.3 25.3L9.9 47.7 28.5 14.9zM70.7 14.8L77.1 50.5 36.9 25.8zM35.5 27.3L76.5 52.5 35.5 75.8zM77 54.5L69.8 85.3 37.2 77.2zM33.5 75L9.9 50.5 33.5 27.8zM33.2 77.6L28.6 85.3 11.5 55.1zM35 78.6L66.4 86.5H30.2zM79.3 53.3L90.9 50.8 72.1 84zM90.7 48.9L79.3 51.4 73.4 18.3zM35 24.3L30 13.5H68.2z" fill="#44f594" data-fill-palette-color="accent"></path></svg></g></svg></g></svg></g><g transform="matrix(1,0,0,1,84.96115922181818,65.16905399227998)"><svg viewBox="0 0 184.08251164727272 14.510367996925673" height="14.510367996925673" width="184.08251164727272"><g transform="matrix(1,0,0,1,0,0)"><svg width="184.08251164727272" viewBox="2.9 -32.45 420.51000000000005 33.150000000000006" height="14.510367996925673" data-palette-color="#111111"><path d="M26.45-8.6L26.6-8.35Q25.75-4.3 25.25 0.05L25.25 0.05 25 0.35Q14.5 0 9.85 0L9.85 0Q6.15 0 2.9 0.5L2.9 0.5 3.2-1.8Q5.45-2.1 6.28-2.98 7.1-3.85 7.1-6L7.1-6 7.15-27Q7.15-28.6 6.78-29.15 6.4-29.7 5.3-29.7L5.3-29.7 3.6-29.6 3.5-29.8 3.85-32Q8.95-31.85 10.8-31.85L10.8-31.85Q16.75-31.85 20.05-31.98 23.35-32.1 25.8-32.45L25.8-32.45 25.95-32.15Q25.05-28.2 24.8-23.85L24.8-23.85 22.4-23.65 22.5-25.8Q22.5-27.55 22.05-28.23 21.6-28.9 20.1-29.13 18.6-29.35 14.85-29.35L14.85-29.35Q13.1-29.35 12.45-29.25 11.8-29.15 11.6-28.78 11.4-28.4 11.35-27.4L11.35-27.4 10.95-17.7 16.1-17.65Q18.05-17.65 22.2-18.2L22.2-18.2 22.4-17.95 21.7-15Q16.15-15.15 14.7-15.15L14.7-15.15Q13.05-15.15 10.85-14.8L10.85-14.8 10.65-5.25Q10.65-3.8 10.9-3.23 11.15-2.65 11.93-2.45 12.7-2.25 14.6-2.25L14.6-2.25Q18.8-2.25 20.58-2.65 22.35-3.05 23.1-4.25 23.85-5.45 24.25-8.35L24.25-8.35 26.45-8.6ZM46.1 0.7Q41.05-13 38.55-19.35L38.55-19.35 38.3-19.35Q38.1-16.95 37.57-10.4 37.05-3.85 37.05-3.2L37.05-3.2Q37.05-2.55 37.35-2.27 37.65-2 38.35-2L38.35-2 39.95-2 40.05-1.85 39.7 0.15Q39.25 0.15 37.97 0.08 36.7 0 35.45 0L35.45 0Q34.45 0 33.3 0.13 32.15 0.25 31.8 0.3L31.8 0.3 32-1.75Q33.3-1.9 33.85-2.53 34.4-3.15 34.6-4.7L34.6-4.7Q35-8.1 35.67-14.25 36.35-20.4 36.35-21.15L36.35-21.15Q36.35-22.15 35.57-22.63 34.8-23.1 32.9-23.2L32.9-23.2 32.75-23.45 33.1-25.1Q33.65-25.05 35.05-24.98 36.45-24.9 37.75-24.9L37.75-24.9Q38.85-24.9 39.77-24.95 40.7-25 41-25.05L41-25.05Q42.5-20.4 43.92-16.32 45.35-12.25 46.27-9.83 47.2-7.4 47.45-6.8L47.45-6.8 47.7-6.8Q48.25-8.2 50.17-13.35 52.1-18.5 54.35-24.95L54.35-24.95Q54.65-25 55.12-24.98 55.6-24.95 56.05-24.95L56.05-24.95Q56.6-24.9 57.65-24.9L57.65-24.9Q58.45-24.9 59.97-25 61.5-25.1 62-25.15L62-25.15 62.1-25 61.85-23.25Q60.1-23.05 59.4-22.58 58.7-22.1 58.7-21.1L58.7-21.1Q58.7-20.1 59.05-14.75 59.4-9.4 59.75-5.65L59.75-5.65Q60-3.4 60.4-2.7 60.8-2 61.75-2L61.75-2 62.9-2.05 63-1.9 62.65 0.1Q62.25 0.1 61.1 0.05 59.95 0 58.65 0L58.65 0Q57.35 0 55.7 0.15 54.05 0.3 53.95 0.3L53.95 0.3 54.15-1.75Q55.45-1.9 56-2.35 56.55-2.8 56.55-3.7L56.55-3.7Q56.55-4.6 56.02-10.85 55.5-17.1 55.3-19.35L55.3-19.35 55.05-19.35Q52.1-11.8 47.55 0.4L47.55 0.4 46.1 0.7ZM68.2 0.3L68.5-1.75Q70.25-2.05 70.82-2.68 71.39-3.3 71.39-4.95L71.39-4.95 71.45-20.85Q71.45-22.1 71.14-22.53 70.84-22.95 70-22.95L70-22.95 68.59-22.9 68.45-23.1 68.75-25Q69-25 70.22-24.95 71.45-24.9 73.45-24.9L73.45-24.9Q74.8-24.9 76.5-24.98 78.2-25.05 78.9-25.05L78.9-25.05Q83.4-25.05 85.67-23.15 87.95-21.25 87.95-17.95L87.95-17.95Q87.95-15.75 86.59-13.75 85.25-11.75 83.07-10.53 80.9-9.3 78.45-9.3L78.45-9.3 75-9.3 74.95-5.8Q74.95-4.05 75.07-3.28 75.2-2.5 75.55-2.25 75.9-2 76.75-2L76.75-2Q77.4-2 78.05-2.05 78.7-2.1 78.9-2.1L78.9-2.1 79-1.9 78.59 0.1Q78.15 0.1 76.95 0.05 75.75 0 74.5 0L74.5 0Q72.84 0 70.55 0.1 68.25 0.2 68.2 0.3L68.2 0.3ZM79.25-11.45Q83.9-12.2 83.9-17.25L83.9-17.25Q83.9-20.05 82.15-21.38 80.4-22.7 76.59-22.7L76.59-22.7Q75.9-22.7 75.75-22.63 75.59-22.55 75.55-22.1L75.55-22.1Q75.15-15.75 75.09-12L75.09-12 79.25-11.45ZM102.79 0.45Q99.39 0.45 96.77-1.05 94.14-2.55 92.72-5.3 91.29-8.05 91.29-11.65L91.29-11.65Q91.29-15.55 93.07-18.68 94.84-21.8 97.92-23.58 100.99-25.35 104.79-25.35L104.79-25.35Q108.24-25.35 110.89-23.85 113.54-22.35 114.99-19.63 116.44-16.9 116.44-13.3L116.44-13.3Q116.44-9.4 114.67-6.28 112.89-3.15 109.77-1.35 106.64 0.45 102.79 0.45L102.79 0.45ZM103.99-1.95Q107.64-1.95 109.89-4.58 112.14-7.2 112.14-11.55L112.14-11.55Q112.14-14.85 111.07-17.35 109.99-19.85 108.02-21.2 106.04-22.55 103.44-22.55L103.44-22.55Q99.89-22.55 97.72-19.95 95.54-17.35 95.54-13L95.54-13Q95.54-9.7 96.59-7.2 97.64-4.7 99.57-3.33 101.49-1.95 103.99-1.95L103.99-1.95ZM127.44 0.65Q126.84-1.4 124.82-8.13 122.79-14.85 120.84-20.65L120.84-20.65Q120.44-21.8 119.62-22.35 118.79-22.9 117.34-22.95L117.34-22.95Q117.34-23 117.24-23.1L117.24-23.1 117.54-25Q118.09-25 119.49-24.95 120.89-24.9 122.24-24.9L122.24-24.9Q124.09-24.9 125.97-25.08 127.84-25.25 128.39-25.3L128.39-25.3 128.54-25 128.34-23.2Q126.24-23.05 125.59-22.75 124.94-22.45 124.94-21.65L124.94-21.65Q124.94-20.7 126.92-13.7 128.89-6.7 129.64-4.2L129.64-4.2 129.94-4.2Q131.19-7.25 133.29-13.05L133.29-13.05Q134.09-15.3 135.44-18.9L135.44-18.9Q135.44-18.9 134.79-20.85L134.79-20.85Q134.44-21.95 133.62-22.4 132.79-22.85 131.24-22.95L131.24-22.95 131.14-23.1 131.44-25Q131.99-25 133.47-24.95 134.94-24.9 136.34-24.9L136.34-24.9Q137.94-24.9 139.89-25.08 141.84-25.25 142.44-25.3L142.44-25.3 142.59-25 142.44-23.2Q140.34-23.05 139.67-22.75 138.99-22.45 138.99-21.65L138.99-21.65Q138.99-20.8 140.97-13.78 142.94-6.75 143.69-4.2L143.69-4.2 144.04-4.2Q145.64-8.1 147.94-14.53 150.24-20.95 150.24-21.75L150.24-21.75Q150.24-22.45 149.67-22.75 149.09-23.05 147.64-23.05L147.64-23.05 145.74-23.05 145.64-23.25 145.94-25.15Q146.49-25.1 148.27-25 150.04-24.9 151.64-24.9L151.64-24.9Q153.14-24.9 154.42-24.95 155.69-25 156.09-25L156.09-25 155.79-22.95Q154.64-22.85 154.17-22.5 153.69-22.15 153.29-21L153.29-21 145.04-0.2 141.49 0.65Q141.39 0.05 139.92-4.9 138.44-9.85 136.74-15.05L136.74-15.05 136.49-15.05 131.04-0.2 127.44 0.65ZM159.34 0.4L159.59-1.7Q161.44-1.9 162.09-2.6 162.74-3.3 162.74-5L162.74-5 162.79-20.85Q162.79-22.1 162.49-22.53 162.19-22.95 161.29-22.95L161.29-22.95 159.94-22.9 159.84-23.1 160.14-25Q160.74-25 162.49-24.95 164.24-24.9 166.29-24.9L166.29-24.9Q174.64-24.9 178.64-25.35L178.64-25.35 178.79-25.1Q178.69-24.55 178.34-22.6 177.99-20.65 177.84-18.4L177.84-18.4 175.44-18.2Q175.44-18.4 175.49-18.88 175.54-19.35 175.54-19.85L175.54-19.85Q175.54-21.15 175.16-21.68 174.79-22.2 173.61-22.38 172.44-22.55 169.54-22.55L169.54-22.55Q168.19-22.55 167.69-22.48 167.19-22.4 167.04-22.13 166.89-21.85 166.84-21.1L166.84-21.1 166.54-14 170.64-13.95Q171.54-13.95 173.29-14.13 175.04-14.3 175.59-14.35L175.59-14.35 175.79-14.1 175.19-11.5Q174.64-11.5 173.01-11.55 171.39-11.6 169.59-11.6L169.59-11.6Q168.19-11.6 166.44-11.35L166.44-11.35Q166.29-7.55 166.29-4.5L166.29-4.5Q166.29-3.35 166.46-2.9 166.64-2.45 167.26-2.3 167.89-2.15 169.34-2.15L169.34-2.15Q172.59-2.15 173.99-2.45 175.39-2.75 175.96-3.68 176.54-4.6 176.89-6.85L176.89-6.85 179.09-7.05 179.29-6.8Q179.14-6.25 178.76-4.23 178.39-2.2 178.19 0L178.19 0 177.89 0.25Q176.54 0.2 172.29 0.1 168.04 0 165.39 0L165.39 0Q163.34 0 161.59 0.18 159.84 0.35 159.34 0.4L159.34 0.4ZM203.59 0.6Q202.49 0.6 201.34-0.38 200.19-1.35 199.24-3.05L199.24-3.05 195.04-10.4 191.79-10.4 191.69-5.05Q191.69-3.6 191.89-2.98 192.09-2.35 192.66-2.15 193.24-1.95 194.64-1.9L194.64-1.9 194.74-1.75 194.34 0.15Q193.74 0.1 192.16 0.08 190.59 0.05 188.99 0.05L188.99 0.05Q187.44 0.05 186.29 0.1 185.14 0.15 184.74 0.2L184.74 0.2 185.09-1.85Q186.94-2.1 187.54-2.7 188.14-3.3 188.14-4.95L188.14-4.95 188.19-20.9Q188.19-22.1 187.89-22.53 187.59-22.95 186.74-22.95L186.74-22.95 185.34-22.9 185.19-23.1 185.49-25Q185.99-25 187.39-24.95 188.79-24.9 190.19-24.9L190.19-24.9Q191.64-24.9 193.29-24.98 194.94-25.05 195.54-25.05L195.54-25.05Q199.59-25.05 201.89-23.38 204.19-21.7 204.19-18.75L204.19-18.75Q204.19-16.45 202.64-14.5 201.09-12.55 198.29-11.3L198.29-11.3 202.54-4.9Q203.74-3.1 204.84-2.35 205.94-1.6 207.49-1.6L207.49-1.6 207.69-1.35 207.44 0.2 203.59 0.6ZM195.94-12.6Q196.89-13 197.61-13.38 198.34-13.75 199.24-14.95 200.14-16.15 200.14-18.05L200.14-18.05Q200.14-22.9 192.99-22.9L192.99-22.9Q192.59-22.9 192.44-22.73 192.29-22.55 192.29-22L192.29-22Q191.89-15.9 191.89-13L191.89-13 195.94-12.6ZM224.73 0.45L225.03-1.6Q226.53-1.85 227.23-2.25 227.93-2.65 228.13-3.4 228.33-4.15 228.33-5.65L228.33-5.65 228.33-7.2Q228.33-8.35 228.08-9.25 227.83-10.15 227.13-11.5L227.13-11.5 223.38-18.7Q222.43-20.5 221.93-21.23 221.43-21.95 220.63-22.4 219.83-22.85 218.33-23L218.33-23 218.23-23.2 218.53-25Q218.98-25 220.36-24.95 221.73-24.9 223.23-24.9L223.23-24.9Q224.63-24.9 226.63-25.03 228.63-25.15 229.23-25.2L229.23-25.2 229.38-24.9 229.23-23.25Q227.53-23.15 226.91-22.88 226.28-22.6 226.28-21.9L226.28-21.9Q226.28-21.25 228.06-17.6 229.83-13.95 230.58-12.5L230.58-12.5 230.83-12.5 235.13-20.2Q235.78-21.35 235.78-22.1L235.78-22.1Q235.78-23.05 233.33-23.2L233.33-23.2 233.23-23.35 233.48-25.15Q233.78-25.15 235.48-25.03 237.18-24.9 238.28-24.9L238.28-24.9Q239.58-24.9 240.68-24.95 241.78-25 242.18-25.05L242.18-25.05 242.33-24.75 242.08-23.05Q240.73-22.75 239.98-22.25 239.23-21.75 238.66-20.95 238.08-20.15 236.78-18L236.78-18 232.73-11.1Q232.18-10.05 232.03-8.8 231.88-7.55 231.88-4.3L231.88-4.3Q231.88-3 232.28-2.5 232.68-2 233.73-2L233.73-2Q234.38-2 234.96-2.05 235.53-2.1 235.73-2.1L235.73-2.1 235.83-1.95 235.43 0.15Q234.83 0.1 233.18 0.05 231.53 0 229.83 0L229.83 0Q228.53 0 226.88 0.18 225.23 0.35 224.73 0.45L224.73 0.45ZM254.68 0.45Q251.28 0.45 248.65-1.05 246.03-2.55 244.6-5.3 243.18-8.05 243.18-11.65L243.18-11.65Q243.18-15.55 244.95-18.68 246.73-21.8 249.8-23.58 252.88-25.35 256.68-25.35L256.68-25.35Q260.13-25.35 262.78-23.85 265.43-22.35 266.88-19.63 268.33-16.9 268.33-13.3L268.33-13.3Q268.33-9.4 266.55-6.28 264.78-3.15 261.65-1.35 258.53 0.45 254.68 0.45L254.68 0.45ZM255.88-1.95Q259.53-1.95 261.78-4.58 264.03-7.2 264.03-11.55L264.03-11.55Q264.03-14.85 262.95-17.35 261.88-19.85 259.9-21.2 257.93-22.55 255.33-22.55L255.33-22.55Q251.78-22.55 249.6-19.95 247.43-17.35 247.43-13L247.43-13Q247.43-9.7 248.48-7.2 249.53-4.7 251.45-3.33 253.38-1.95 255.88-1.95L255.88-1.95ZM284.23 0.45Q279.78 0.45 277.45-1.75 275.13-3.95 275.13-8.1L275.13-8.1 275.13-20.85Q275.13-22.1 274.83-22.53 274.53-22.95 273.63-22.95L273.63-22.95 272.28-22.9 272.18-23.05 272.48-25Q273.03-25 274.48-24.95 275.93-24.9 277.43-24.9L277.43-24.9Q278.53-24.9 279.98-25.03 281.43-25.15 281.88-25.2L281.88-25.2 281.68-23.2Q280.23-23 279.73-22.55 279.23-22.1 279.13-21L279.13-21 278.83-9.55Q278.83-6 280.48-4.08 282.13-2.15 285.23-2.15L285.23-2.15Q288.38-2.15 290-3.73 291.63-5.3 291.63-8.3L291.63-8.3Q291.63-11.4 291.55-15.33 291.48-19.25 291.43-20.85L291.43-20.85Q291.33-22.2 291.08-22.58 290.83-22.95 289.98-22.95L289.98-22.95 288.28-22.9 288.23-23.05 288.53-25Q289.03-25 290.4-24.95 291.78-24.9 293.18-24.9L293.18-24.9Q294.33-24.9 295.65-25.03 296.98-25.15 297.38-25.2L297.38-25.2 297.23-23.2Q295.48-22.95 294.98-22.55 294.48-22.15 294.48-21.05L294.48-21.05 294.48-8.25Q294.48-4.1 291.8-1.83 289.13 0.45 284.23 0.45L284.23 0.45ZM320.67 0.6Q319.57 0.6 318.42-0.38 317.27-1.35 316.32-3.05L316.32-3.05 312.12-10.4 308.87-10.4 308.77-5.05Q308.77-3.6 308.97-2.98 309.17-2.35 309.75-2.15 310.32-1.95 311.72-1.9L311.72-1.9 311.82-1.75 311.42 0.15Q310.82 0.1 309.25 0.08 307.67 0.05 306.07 0.05L306.07 0.05Q304.52 0.05 303.37 0.1 302.22 0.15 301.82 0.2L301.82 0.2 302.17-1.85Q304.02-2.1 304.62-2.7 305.22-3.3 305.22-4.95L305.22-4.95 305.27-20.9Q305.27-22.1 304.97-22.53 304.67-22.95 303.82-22.95L303.82-22.95 302.42-22.9 302.27-23.1 302.57-25Q303.07-25 304.47-24.95 305.87-24.9 307.27-24.9L307.27-24.9Q308.72-24.9 310.37-24.98 312.02-25.05 312.62-25.05L312.62-25.05Q316.67-25.05 318.97-23.38 321.27-21.7 321.27-18.75L321.27-18.75Q321.27-16.45 319.72-14.5 318.17-12.55 315.37-11.3L315.37-11.3 319.62-4.9Q320.82-3.1 321.92-2.35 323.02-1.6 324.57-1.6L324.57-1.6 324.77-1.35 324.52 0.2 320.67 0.6ZM313.02-12.6Q313.97-13 314.7-13.38 315.42-13.75 316.32-14.95 317.22-16.15 317.22-18.05L317.22-18.05Q317.22-22.9 310.07-22.9L310.07-22.9Q309.67-22.9 309.52-22.73 309.37-22.55 309.37-22L309.37-22Q308.97-15.9 308.97-13L308.97-13 313.02-12.6ZM335.12 0.45Q333.37 0.45 331.9 0.15 330.42-0.15 329.55-0.48 328.67-0.8 328.47-0.9L328.47-0.9 328.22-1.35Q328.27-1.6 328.4-2.48 328.52-3.35 328.65-4.93 328.77-6.5 328.77-8.1L328.77-8.1 331.02-8.3Q331.02-5.6 331.45-4.28 331.87-2.95 332.92-2.45 333.97-1.95 336.12-1.95L336.12-1.95Q338.52-1.95 340-3 341.47-4.05 341.47-5.8L341.47-5.8Q341.47-6.95 340.65-7.83 339.82-8.7 338.75-9.3 337.67-9.9 335.32-11.05L335.32-11.05Q332.12-12.6 330.4-14.1 328.67-15.6 328.67-17.95L328.67-17.95Q328.67-20.05 329.95-21.75 331.22-23.45 333.47-24.4 335.72-25.35 338.47-25.35L338.47-25.35Q340.12-25.35 341.57-25.15 343.02-24.95 343.87-24.73 344.72-24.5 344.92-24.4L344.92-24.4 345.12-24.05Q345.02-23.5 344.67-21.58 344.32-19.65 344.17-17.45L344.17-17.45 342.22-17.25 341.92-17.45Q341.92-17.6 341.97-18.07 342.02-18.55 342.02-19.25L342.02-19.25Q342.02-21.2 341-21.98 339.97-22.75 337.37-22.75L337.37-22.75Q335.27-22.75 333.9-21.78 332.52-20.8 332.52-19.3L332.52-19.3Q332.52-17.8 333.9-16.75 335.27-15.7 338.07-14.35L338.07-14.35Q340.52-13.2 342-12.35 343.47-11.5 344.52-10.2 345.57-8.9 345.57-7.2L345.57-7.2Q345.57-4.95 344.25-3.23 342.92-1.5 340.55-0.53 338.17 0.45 335.12 0.45L335.12 0.45ZM351.22 0.4L351.47-1.7Q353.32-1.9 353.97-2.6 354.62-3.3 354.62-5L354.62-5 354.67-20.85Q354.67-22.1 354.37-22.53 354.07-22.95 353.17-22.95L353.17-22.95 351.82-22.9 351.72-23.1 352.02-25Q352.62-25 354.37-24.95 356.12-24.9 358.17-24.9L358.17-24.9Q366.52-24.9 370.52-25.35L370.52-25.35 370.67-25.1Q370.57-24.55 370.22-22.6 369.87-20.65 369.72-18.4L369.72-18.4 367.32-18.2Q367.32-18.4 367.37-18.88 367.42-19.35 367.42-19.85L367.42-19.85Q367.42-21.15 367.04-21.68 366.67-22.2 365.49-22.38 364.32-22.55 361.42-22.55L361.42-22.55Q360.07-22.55 359.57-22.48 359.07-22.4 358.92-22.13 358.77-21.85 358.72-21.1L358.72-21.1 358.42-14 362.52-13.95Q363.42-13.95 365.17-14.13 366.92-14.3 367.47-14.35L367.47-14.35 367.67-14.1 367.07-11.5Q366.52-11.5 364.89-11.55 363.27-11.6 361.47-11.6L361.47-11.6Q360.07-11.6 358.32-11.35L358.32-11.35Q358.17-7.55 358.17-4.5L358.17-4.5Q358.17-3.35 358.34-2.9 358.52-2.45 359.14-2.3 359.77-2.15 361.22-2.15L361.22-2.15Q364.47-2.15 365.87-2.45 367.27-2.75 367.84-3.68 368.42-4.6 368.77-6.85L368.77-6.85 370.97-7.05 371.17-6.8Q371.02-6.25 370.64-4.23 370.27-2.2 370.07 0L370.07 0 369.77 0.25Q368.42 0.2 364.17 0.1 359.92 0 357.27 0L357.27 0Q355.22 0 353.47 0.18 351.72 0.35 351.22 0.4L351.22 0.4ZM376.97 0.4L377.27-1.7Q378.87-1.95 379.44-2.63 380.02-3.3 380.02-5L380.02-5 380.06-20.85Q380.06-22.1 379.77-22.53 379.47-22.95 378.56-22.95L378.56-22.95 377.22-22.9 377.06-23.1 377.37-25Q377.62-25 378.87-24.95 380.12-24.9 382.22-24.9L382.22-24.9Q383.31-24.9 384.94-25.05 386.56-25.2 387.06-25.25L387.06-25.25 386.87-23.15Q385.52-23 384.97-22.68 384.42-22.35 384.31-21.85 384.22-21.35 384.06-19.8L384.06-19.8Q383.56-13.1 383.56-4.95L383.56-4.95Q383.56-3.7 383.79-3.13 384.02-2.55 384.69-2.35 385.37-2.15 386.81-2.15L386.81-2.15Q389.22-2.15 390.34-2.55 391.47-2.95 392.04-4.13 392.62-5.3 393.06-7.85L393.06-7.85 395.27-8.1 395.42-7.8Q395.31-7.15 394.94-4.83 394.56-2.5 394.27 0.05L394.27 0.05 394.02 0.35Q392.87 0.3 389.14 0.15 385.42 0 382.87 0L382.87 0Q380.87 0 379.14 0.18 377.42 0.35 376.97 0.4L376.97 0.4ZM397.71 0.45L397.96-1.6Q399.86-1.95 400.49-2.63 401.11-3.3 401.11-5L401.11-5 401.16-20.85Q401.16-22.1 400.86-22.53 400.56-22.95 399.66-22.95L399.66-22.95 398.31-22.9 398.21-23.1 398.51-25Q399.11-25 400.86-24.95 402.61-24.9 404.66-24.9L404.66-24.9Q412.41-24.9 416.16-25.35L416.16-25.35 416.36-25.1Q416.26-24.55 415.91-22.55 415.56-20.55 415.41-18.3L415.41-18.3 413.01-18.15Q413.01-18.35 413.06-18.85 413.11-19.35 413.11-19.85L413.11-19.85Q413.11-21.15 412.79-21.68 412.46-22.2 411.41-22.38 410.36-22.55 407.91-22.55L407.91-22.55Q406.56-22.55 406.06-22.48 405.56-22.4 405.41-22.13 405.26-21.85 405.21-21.1L405.21-21.1 404.86-13.35 409.01-13.3Q409.81-13.3 411.31-13.48 412.81-13.65 413.31-13.7L413.31-13.7 413.51-13.45 412.96-10.8Q412.46-10.8 411.01-10.85 409.56-10.9 407.96-10.9L407.96-10.9Q406.56-10.9 404.81-10.65L404.81-10.65 404.66-4.75Q404.66-3.2 405.01-2.68 405.36-2.15 406.46-2.15L406.46-2.15Q407.26-2.15 408.11-2.23 408.96-2.3 409.26-2.3L409.26-2.3 409.41-2.05 409.06 0.15Q408.41 0.1 406.59 0.05 404.76 0 402.86 0L402.86 0Q401.41 0 399.81 0.18 398.21 0.35 397.71 0.45L397.71 0.45ZM420.26 0.6Q418.91 0.6 418.19-0.23 417.46-1.05 417.46-2.25L417.46-2.25Q417.46-3.55 418.31-4.45 419.16-5.35 420.56-5.35L420.56-5.35Q421.91-5.35 422.66-4.53 423.41-3.7 423.41-2.5L423.41-2.5Q423.41-1.2 422.54-0.3 421.66 0.6 420.26 0.6L420.26 0.6Z" opacity="1" transform="matrix(1,0,0,1,0,0)" fill="#111111" class="slogan-text-1" data-fill-palette-color="secondary" id="text-1"></path></svg></g></svg></g></svg></g></svg></g><g></g></svg></g><defs></defs><mask id="676c2e05-3095-4f9e-bcf6-169c84e939e2"><g id="SvgjsG1028"><svg viewBox="0 0 354.0048300909091 79.67942198920566" height="79.67942198920566" width="354.0048300909091"><g><svg viewBox="0 0 354.0048300909091 79.67942198920566" height="79.67942198920566" width="354.0048300909091"><g><svg viewBox="0 0 354.0048300909091 79.67942198920566" height="79.67942198920566" width="354.0048300909091"><g id="SvgjsG1027"><svg viewBox="0 0 354.0048300909091 79.67942198920566" height="79.67942198920566" width="354.0048300909091" id="SvgjsSvg1026"><g><svg viewBox="0 0 354.0048300909091 52.72252999999999" height="52.72252999999999" width="354.0048300909091"><g><svg><g></g><g></g></svg></g><g><svg><g><svg></svg></g><g></g></svg></g><g id="SvgjsG1025"><svg viewBox="0 0 354.0048300909091 52.72252999999999" height="52.72252999999999" width="354.0048300909091"><g transform="matrix(1,0,0,1,0,0)"><svg width="281.058735" viewBox="1.95 -33.9 182.84 34.3" height="52.72252999999999" data-palette-color="url(#9048d0bf-8c68-4608-b679-979cf17af9b3)"><path d="M24.2-9.8L24.2-9.8Q24.2-5.25 20.85-2.43 17.5 0.4 11.95 0.4L11.95 0.4Q6 0.4 2.25-1.7L2.25-1.7 2.25-9.45Q6.8-6.15 11.95-6.15L11.95-6.15Q13.7-6.15 14.85-7.08 16-8 16-9.5L16-9.5Q16-10 15.85-10.45 15.7-10.9 15.3-11.3 14.9-11.7 14.53-11.98 14.15-12.25 13.43-12.63 12.7-13 12.2-13.25 11.7-13.5 10.73-13.95 9.75-14.4 9.15-14.65L9.15-14.65Q5.9-16.15 3.93-18.35 1.95-20.55 1.95-24.2L1.95-24.2Q1.95-28.55 5.15-31.23 8.35-33.9 14-33.9L14-33.9Q19.05-33.9 22.7-32.2L22.7-32.2 22.7-25Q18.65-27.35 14.3-27.35L14.3-27.35Q12.35-27.35 11.33-26.55 10.3-25.75 10.3-24.5 10.3-23.25 11.55-22.28 12.8-21.3 15.3-20.2L15.3-20.2Q16.85-19.5 17.88-18.98 18.9-18.45 20.23-17.53 21.55-16.6 22.33-15.58 23.1-14.55 23.65-13.05 24.2-11.55 24.2-9.8ZM56.75-33.7L56.75 0 49 0 49-13.45 36.65-13.45 36.65 0 28.95 0 28.95-33.7 36.65-33.7 36.65-20 49-20 49-33.7 56.75-33.7ZM71.45-33.7L71.45 0 63.75 0 63.75-33.7 71.45-33.7ZM107.19-33.7L95.84 0 87.34 0 76.14-33.7 84.44-33.7 88.49-20.25Q89.59-16.65 90.39-13.33 91.19-10 91.44-8.5L91.44-8.5 91.69-6.95Q92.49-12.15 94.94-20.25L94.94-20.25 98.99-33.7 107.19-33.7ZM121.59-14.3L121.59-14.3 121.24-13.1 129.34-13.1 128.99-14.3Q127.54-19.2 126.62-22.65 125.69-26.1 125.49-27.1L125.49-27.1 125.29-28.1Q124.89-25.35 121.59-14.3ZM119.39-6.9L117.34 0 109.29 0 120.54-33.7 130.24-33.7 141.49 0 133.24 0 131.19-6.9 119.39-6.9ZM153.89-13.05L152.84 0 145.14 0 148.04-33.7 156.49-33.7 161.19-21.5Q162.39-18.45 163.24-15.9 164.09-13.35 164.34-12.3L164.34-12.3 164.59-11.3Q165.39-14.6 168.09-21.5L168.09-21.5 172.84-33.7 181.29-33.7 184.79 0 177.09 0 175.84-13.05 175.19-22.9Q173.89-19.15 171.59-13.05L171.59-13.05 166.84-0.35 162.29-0.35 157.59-13.05Q156.44-16.15 155.64-18.6 154.84-21.05 154.59-22L154.59-22 154.34-22.9Q154.34-19.35 153.89-13.05L153.89-13.05Z" opacity="1" transform="matrix(1,0,0,1,0,0)" fill="white" class="wordmark-text-0"></path></svg></g><g><svg xmlns="http://www.w3.org/2000/svg" xmlns:xlink="http://www.w3.org/1999/xlink" version="1.1" x="294.161335" y="0" viewBox="6.3 11.5 87.4 77" style="enable-background:new 0 0 100 100;" xml:space="preserve" height="52.72252999999999" width="59.84349509090909" class="icon-dxe-0" data-fill-palette-color="accent" id="SvgjsSvg1024"><path d="M72.3 12.3L71.9 11.5H28.2L6.3 50 28.1 88.5H71.8L93.7 50zM33.3 25.3L9.9 47.7 28.5 14.9zM70.7 14.8L77.1 50.5 36.9 25.8zM35.5 27.3L76.5 52.5 35.5 75.8zM77 54.5L69.8 85.3 37.2 77.2zM33.5 75L9.9 50.5 33.5 27.8zM33.2 77.6L28.6 85.3 11.5 55.1zM35 78.6L66.4 86.5H30.2zM79.3 53.3L90.9 50.8 72.1 84zM90.7 48.9L79.3 51.4 73.4 18.3zM35 24.3L30 13.5H68.2z" fill="black"></path></svg></g></svg></g></svg></g><g transform="matrix(1,0,0,1,84.96115922181818,65.16905399227998)"><svg viewBox="0 0 184.08251164727272 14.510367996925673" height="14.510367996925673" width="184.08251164727272"><g transform="matrix(1,0,0,1,0,0)"><svg width="184.08251164727272" viewBox="2.9 -32.45 420.51000000000005 33.150000000000006" height="14.510367996925673" data-palette-color="#111111"><path d="M26.45-8.6L26.6-8.35Q25.75-4.3 25.25 0.05L25.25 0.05 25 0.35Q14.5 0 9.85 0L9.85 0Q6.15 0 2.9 0.5L2.9 0.5 3.2-1.8Q5.45-2.1 6.28-2.98 7.1-3.85 7.1-6L7.1-6 7.15-27Q7.15-28.6 6.78-29.15 6.4-29.7 5.3-29.7L5.3-29.7 3.6-29.6 3.5-29.8 3.85-32Q8.95-31.85 10.8-31.85L10.8-31.85Q16.75-31.85 20.05-31.98 23.35-32.1 25.8-32.45L25.8-32.45 25.95-32.15Q25.05-28.2 24.8-23.85L24.8-23.85 22.4-23.65 22.5-25.8Q22.5-27.55 22.05-28.23 21.6-28.9 20.1-29.13 18.6-29.35 14.85-29.35L14.85-29.35Q13.1-29.35 12.45-29.25 11.8-29.15 11.6-28.78 11.4-28.4 11.35-27.4L11.35-27.4 10.95-17.7 16.1-17.65Q18.05-17.65 22.2-18.2L22.2-18.2 22.4-17.95 21.7-15Q16.15-15.15 14.7-15.15L14.7-15.15Q13.05-15.15 10.85-14.8L10.85-14.8 10.65-5.25Q10.65-3.8 10.9-3.23 11.15-2.65 11.93-2.45 12.7-2.25 14.6-2.25L14.6-2.25Q18.8-2.25 20.58-2.65 22.35-3.05 23.1-4.25 23.85-5.45 24.25-8.35L24.25-8.35 26.45-8.6ZM46.1 0.7Q41.05-13 38.55-19.35L38.55-19.35 38.3-19.35Q38.1-16.95 37.57-10.4 37.05-3.85 37.05-3.2L37.05-3.2Q37.05-2.55 37.35-2.27 37.65-2 38.35-2L38.35-2 39.95-2 40.05-1.85 39.7 0.15Q39.25 0.15 37.97 0.08 36.7 0 35.45 0L35.45 0Q34.45 0 33.3 0.13 32.15 0.25 31.8 0.3L31.8 0.3 32-1.75Q33.3-1.9 33.85-2.53 34.4-3.15 34.6-4.7L34.6-4.7Q35-8.1 35.67-14.25 36.35-20.4 36.35-21.15L36.35-21.15Q36.35-22.15 35.57-22.63 34.8-23.1 32.9-23.2L32.9-23.2 32.75-23.45 33.1-25.1Q33.65-25.05 35.05-24.98 36.45-24.9 37.75-24.9L37.75-24.9Q38.85-24.9 39.77-24.95 40.7-25 41-25.05L41-25.05Q42.5-20.4 43.92-16.32 45.35-12.25 46.27-9.83 47.2-7.4 47.45-6.8L47.45-6.8 47.7-6.8Q48.25-8.2 50.17-13.35 52.1-18.5 54.35-24.95L54.35-24.95Q54.65-25 55.12-24.98 55.6-24.95 56.05-24.95L56.05-24.95Q56.6-24.9 57.65-24.9L57.65-24.9Q58.45-24.9 59.97-25 61.5-25.1 62-25.15L62-25.15 62.1-25 61.85-23.25Q60.1-23.05 59.4-22.58 58.7-22.1 58.7-21.1L58.7-21.1Q58.7-20.1 59.05-14.75 59.4-9.4 59.75-5.65L59.75-5.65Q60-3.4 60.4-2.7 60.8-2 61.75-2L61.75-2 62.9-2.05 63-1.9 62.65 0.1Q62.25 0.1 61.1 0.05 59.95 0 58.65 0L58.65 0Q57.35 0 55.7 0.15 54.05 0.3 53.95 0.3L53.95 0.3 54.15-1.75Q55.45-1.9 56-2.35 56.55-2.8 56.55-3.7L56.55-3.7Q56.55-4.6 56.02-10.85 55.5-17.1 55.3-19.35L55.3-19.35 55.05-19.35Q52.1-11.8 47.55 0.4L47.55 0.4 46.1 0.7ZM68.2 0.3L68.5-1.75Q70.25-2.05 70.82-2.68 71.39-3.3 71.39-4.95L71.39-4.95 71.45-20.85Q71.45-22.1 71.14-22.53 70.84-22.95 70-22.95L70-22.95 68.59-22.9 68.45-23.1 68.75-25Q69-25 70.22-24.95 71.45-24.9 73.45-24.9L73.45-24.9Q74.8-24.9 76.5-24.98 78.2-25.05 78.9-25.05L78.9-25.05Q83.4-25.05 85.67-23.15 87.95-21.25 87.95-17.95L87.95-17.95Q87.95-15.75 86.59-13.75 85.25-11.75 83.07-10.53 80.9-9.3 78.45-9.3L78.45-9.3 75-9.3 74.95-5.8Q74.95-4.05 75.07-3.28 75.2-2.5 75.55-2.25 75.9-2 76.75-2L76.75-2Q77.4-2 78.05-2.05 78.7-2.1 78.9-2.1L78.9-2.1 79-1.9 78.59 0.1Q78.15 0.1 76.95 0.05 75.75 0 74.5 0L74.5 0Q72.84 0 70.55 0.1 68.25 0.2 68.2 0.3L68.2 0.3ZM79.25-11.45Q83.9-12.2 83.9-17.25L83.9-17.25Q83.9-20.05 82.15-21.38 80.4-22.7 76.59-22.7L76.59-22.7Q75.9-22.7 75.75-22.63 75.59-22.55 75.55-22.1L75.55-22.1Q75.15-15.75 75.09-12L75.09-12 79.25-11.45ZM102.79 0.45Q99.39 0.45 96.77-1.05 94.14-2.55 92.72-5.3 91.29-8.05 91.29-11.65L91.29-11.65Q91.29-15.55 93.07-18.68 94.84-21.8 97.92-23.58 100.99-25.35 104.79-25.35L104.79-25.35Q108.24-25.35 110.89-23.85 113.54-22.35 114.99-19.63 116.44-16.9 116.44-13.3L116.44-13.3Q116.44-9.4 114.67-6.28 112.89-3.15 109.77-1.35 106.64 0.45 102.79 0.45L102.79 0.45ZM103.99-1.95Q107.64-1.95 109.89-4.58 112.14-7.2 112.14-11.55L112.14-11.55Q112.14-14.85 111.07-17.35 109.99-19.85 108.02-21.2 106.04-22.55 103.44-22.55L103.44-22.55Q99.89-22.55 97.72-19.95 95.54-17.35 95.54-13L95.54-13Q95.54-9.7 96.59-7.2 97.64-4.7 99.57-3.33 101.49-1.95 103.99-1.95L103.99-1.95ZM127.44 0.65Q126.84-1.4 124.82-8.13 122.79-14.85 120.84-20.65L120.84-20.65Q120.44-21.8 119.62-22.35 118.79-22.9 117.34-22.95L117.34-22.95Q117.34-23 117.24-23.1L117.24-23.1 117.54-25Q118.09-25 119.49-24.95 120.89-24.9 122.24-24.9L122.24-24.9Q124.09-24.9 125.97-25.08 127.84-25.25 128.39-25.3L128.39-25.3 128.54-25 128.34-23.2Q126.24-23.05 125.59-22.75 124.94-22.45 124.94-21.65L124.94-21.65Q124.94-20.7 126.92-13.7 128.89-6.7 129.64-4.2L129.64-4.2 129.94-4.2Q131.19-7.25 133.29-13.05L133.29-13.05Q134.09-15.3 135.44-18.9L135.44-18.9Q135.44-18.9 134.79-20.85L134.79-20.85Q134.44-21.95 133.62-22.4 132.79-22.85 131.24-22.95L131.24-22.95 131.14-23.1 131.44-25Q131.99-25 133.47-24.95 134.94-24.9 136.34-24.9L136.34-24.9Q137.94-24.9 139.89-25.08 141.84-25.25 142.44-25.3L142.44-25.3 142.59-25 142.44-23.2Q140.34-23.05 139.67-22.75 138.99-22.45 138.99-21.65L138.99-21.65Q138.99-20.8 140.97-13.78 142.94-6.75 143.69-4.2L143.69-4.2 144.04-4.2Q145.64-8.1 147.94-14.53 150.24-20.95 150.24-21.75L150.24-21.75Q150.24-22.45 149.67-22.75 149.09-23.05 147.64-23.05L147.64-23.05 145.74-23.05 145.64-23.25 145.94-25.15Q146.49-25.1 148.27-25 150.04-24.9 151.64-24.9L151.64-24.9Q153.14-24.9 154.42-24.95 155.69-25 156.09-25L156.09-25 155.79-22.95Q154.64-22.85 154.17-22.5 153.69-22.15 153.29-21L153.29-21 145.04-0.2 141.49 0.65Q141.39 0.05 139.92-4.9 138.44-9.85 136.74-15.05L136.74-15.05 136.49-15.05 131.04-0.2 127.44 0.65ZM159.34 0.4L159.59-1.7Q161.44-1.9 162.09-2.6 162.74-3.3 162.74-5L162.74-5 162.79-20.85Q162.79-22.1 162.49-22.53 162.19-22.95 161.29-22.95L161.29-22.95 159.94-22.9 159.84-23.1 160.14-25Q160.74-25 162.49-24.95 164.24-24.9 166.29-24.9L166.29-24.9Q174.64-24.9 178.64-25.35L178.64-25.35 178.79-25.1Q178.69-24.55 178.34-22.6 177.99-20.65 177.84-18.4L177.84-18.4 175.44-18.2Q175.44-18.4 175.49-18.88 175.54-19.35 175.54-19.85L175.54-19.85Q175.54-21.15 175.16-21.68 174.79-22.2 173.61-22.38 172.44-22.55 169.54-22.55L169.54-22.55Q168.19-22.55 167.69-22.48 167.19-22.4 167.04-22.13 166.89-21.85 166.84-21.1L166.84-21.1 166.54-14 170.64-13.95Q171.54-13.95 173.29-14.13 175.04-14.3 175.59-14.35L175.59-14.35 175.79-14.1 175.19-11.5Q174.64-11.5 173.01-11.55 171.39-11.6 169.59-11.6L169.59-11.6Q168.19-11.6 166.44-11.35L166.44-11.35Q166.29-7.55 166.29-4.5L166.29-4.5Q166.29-3.35 166.46-2.9 166.64-2.45 167.26-2.3 167.89-2.15 169.34-2.15L169.34-2.15Q172.59-2.15 173.99-2.45 175.39-2.75 175.96-3.68 176.54-4.6 176.89-6.85L176.89-6.85 179.09-7.05 179.29-6.8Q179.14-6.25 178.76-4.23 178.39-2.2 178.19 0L178.19 0 177.89 0.25Q176.54 0.2 172.29 0.1 168.04 0 165.39 0L165.39 0Q163.34 0 161.59 0.18 159.84 0.35 159.34 0.4L159.34 0.4ZM203.59 0.6Q202.49 0.6 201.34-0.38 200.19-1.35 199.24-3.05L199.24-3.05 195.04-10.4 191.79-10.4 191.69-5.05Q191.69-3.6 191.89-2.98 192.09-2.35 192.66-2.15 193.24-1.95 194.64-1.9L194.64-1.9 194.74-1.75 194.34 0.15Q193.74 0.1 192.16 0.08 190.59 0.05 188.99 0.05L188.99 0.05Q187.44 0.05 186.29 0.1 185.14 0.15 184.74 0.2L184.74 0.2 185.09-1.85Q186.94-2.1 187.54-2.7 188.14-3.3 188.14-4.95L188.14-4.95 188.19-20.9Q188.19-22.1 187.89-22.53 187.59-22.95 186.74-22.95L186.74-22.95 185.34-22.9 185.19-23.1 185.49-25Q185.99-25 187.39-24.95 188.79-24.9 190.19-24.9L190.19-24.9Q191.64-24.9 193.29-24.98 194.94-25.05 195.54-25.05L195.54-25.05Q199.59-25.05 201.89-23.38 204.19-21.7 204.19-18.75L204.19-18.75Q204.19-16.45 202.64-14.5 201.09-12.55 198.29-11.3L198.29-11.3 202.54-4.9Q203.74-3.1 204.84-2.35 205.94-1.6 207.49-1.6L207.49-1.6 207.69-1.35 207.44 0.2 203.59 0.6ZM195.94-12.6Q196.89-13 197.61-13.38 198.34-13.75 199.24-14.95 200.14-16.15 200.14-18.05L200.14-18.05Q200.14-22.9 192.99-22.9L192.99-22.9Q192.59-22.9 192.44-22.73 192.29-22.55 192.29-22L192.29-22Q191.89-15.9 191.89-13L191.89-13 195.94-12.6ZM224.73 0.45L225.03-1.6Q226.53-1.85 227.23-2.25 227.93-2.65 228.13-3.4 228.33-4.15 228.33-5.65L228.33-5.65 228.33-7.2Q228.33-8.35 228.08-9.25 227.83-10.15 227.13-11.5L227.13-11.5 223.38-18.7Q222.43-20.5 221.93-21.23 221.43-21.95 220.63-22.4 219.83-22.85 218.33-23L218.33-23 218.23-23.2 218.53-25Q218.98-25 220.36-24.95 221.73-24.9 223.23-24.9L223.23-24.9Q224.63-24.9 226.63-25.03 228.63-25.15 229.23-25.2L229.23-25.2 229.38-24.9 229.23-23.25Q227.53-23.15 226.91-22.88 226.28-22.6 226.28-21.9L226.28-21.9Q226.28-21.25 228.06-17.6 229.83-13.95 230.58-12.5L230.58-12.5 230.83-12.5 235.13-20.2Q235.78-21.35 235.78-22.1L235.78-22.1Q235.78-23.05 233.33-23.2L233.33-23.2 233.23-23.35 233.48-25.15Q233.78-25.15 235.48-25.03 237.18-24.9 238.28-24.9L238.28-24.9Q239.58-24.9 240.68-24.95 241.78-25 242.18-25.05L242.18-25.05 242.33-24.75 242.08-23.05Q240.73-22.75 239.98-22.25 239.23-21.75 238.66-20.95 238.08-20.15 236.78-18L236.78-18 232.73-11.1Q232.18-10.05 232.03-8.8 231.88-7.55 231.88-4.3L231.88-4.3Q231.88-3 232.28-2.5 232.68-2 233.73-2L233.73-2Q234.38-2 234.96-2.05 235.53-2.1 235.73-2.1L235.73-2.1 235.83-1.95 235.43 0.15Q234.83 0.1 233.18 0.05 231.53 0 229.83 0L229.83 0Q228.53 0 226.88 0.18 225.23 0.35 224.73 0.45L224.73 0.45ZM254.68 0.45Q251.28 0.45 248.65-1.05 246.03-2.55 244.6-5.3 243.18-8.05 243.18-11.65L243.18-11.65Q243.18-15.55 244.95-18.68 246.73-21.8 249.8-23.58 252.88-25.35 256.68-25.35L256.68-25.35Q260.13-25.35 262.78-23.85 265.43-22.35 266.88-19.63 268.33-16.9 268.33-13.3L268.33-13.3Q268.33-9.4 266.55-6.28 264.78-3.15 261.65-1.35 258.53 0.45 254.68 0.45L254.68 0.45ZM255.88-1.95Q259.53-1.95 261.78-4.58 264.03-7.2 264.03-11.55L264.03-11.55Q264.03-14.85 262.95-17.35 261.88-19.85 259.9-21.2 257.93-22.55 255.33-22.55L255.33-22.55Q251.78-22.55 249.6-19.95 247.43-17.35 247.43-13L247.43-13Q247.43-9.7 248.48-7.2 249.53-4.7 251.45-3.33 253.38-1.95 255.88-1.95L255.88-1.95ZM284.23 0.45Q279.78 0.45 277.45-1.75 275.13-3.95 275.13-8.1L275.13-8.1 275.13-20.85Q275.13-22.1 274.83-22.53 274.53-22.95 273.63-22.95L273.63-22.95 272.28-22.9 272.18-23.05 272.48-25Q273.03-25 274.48-24.95 275.93-24.9 277.43-24.9L277.43-24.9Q278.53-24.9 279.98-25.03 281.43-25.15 281.88-25.2L281.88-25.2 281.68-23.2Q280.23-23 279.73-22.55 279.23-22.1 279.13-21L279.13-21 278.83-9.55Q278.83-6 280.48-4.08 282.13-2.15 285.23-2.15L285.23-2.15Q288.38-2.15 290-3.73 291.63-5.3 291.63-8.3L291.63-8.3Q291.63-11.4 291.55-15.33 291.48-19.25 291.43-20.85L291.43-20.85Q291.33-22.2 291.08-22.58 290.83-22.95 289.98-22.95L289.98-22.95 288.28-22.9 288.23-23.05 288.53-25Q289.03-25 290.4-24.95 291.78-24.9 293.18-24.9L293.18-24.9Q294.33-24.9 295.65-25.03 296.98-25.15 297.38-25.2L297.38-25.2 297.23-23.2Q295.48-22.95 294.98-22.55 294.48-22.15 294.48-21.05L294.48-21.05 294.48-8.25Q294.48-4.1 291.8-1.83 289.13 0.45 284.23 0.45L284.23 0.45ZM320.67 0.6Q319.57 0.6 318.42-0.38 317.27-1.35 316.32-3.05L316.32-3.05 312.12-10.4 308.87-10.4 308.77-5.05Q308.77-3.6 308.97-2.98 309.17-2.35 309.75-2.15 310.32-1.95 311.72-1.9L311.72-1.9 311.82-1.75 311.42 0.15Q310.82 0.1 309.25 0.08 307.67 0.05 306.07 0.05L306.07 0.05Q304.52 0.05 303.37 0.1 302.22 0.15 301.82 0.2L301.82 0.2 302.17-1.85Q304.02-2.1 304.62-2.7 305.22-3.3 305.22-4.95L305.22-4.95 305.27-20.9Q305.27-22.1 304.97-22.53 304.67-22.95 303.82-22.95L303.82-22.95 302.42-22.9 302.27-23.1 302.57-25Q303.07-25 304.47-24.95 305.87-24.9 307.27-24.9L307.27-24.9Q308.72-24.9 310.37-24.98 312.02-25.05 312.62-25.05L312.62-25.05Q316.67-25.05 318.97-23.38 321.27-21.7 321.27-18.75L321.27-18.75Q321.27-16.45 319.72-14.5 318.17-12.55 315.37-11.3L315.37-11.3 319.62-4.9Q320.82-3.1 321.92-2.35 323.02-1.6 324.57-1.6L324.57-1.6 324.77-1.35 324.52 0.2 320.67 0.6ZM313.02-12.6Q313.97-13 314.7-13.38 315.42-13.75 316.32-14.95 317.22-16.15 317.22-18.05L317.22-18.05Q317.22-22.9 310.07-22.9L310.07-22.9Q309.67-22.9 309.52-22.73 309.37-22.55 309.37-22L309.37-22Q308.97-15.9 308.97-13L308.97-13 313.02-12.6ZM335.12 0.45Q333.37 0.45 331.9 0.15 330.42-0.15 329.55-0.48 328.67-0.8 328.47-0.9L328.47-0.9 328.22-1.35Q328.27-1.6 328.4-2.48 328.52-3.35 328.65-4.93 328.77-6.5 328.77-8.1L328.77-8.1 331.02-8.3Q331.02-5.6 331.45-4.28 331.87-2.95 332.92-2.45 333.97-1.95 336.12-1.95L336.12-1.95Q338.52-1.95 340-3 341.47-4.05 341.47-5.8L341.47-5.8Q341.47-6.95 340.65-7.83 339.82-8.7 338.75-9.3 337.67-9.9 335.32-11.05L335.32-11.05Q332.12-12.6 330.4-14.1 328.67-15.6 328.67-17.95L328.67-17.95Q328.67-20.05 329.95-21.75 331.22-23.45 333.47-24.4 335.72-25.35 338.47-25.35L338.47-25.35Q340.12-25.35 341.57-25.15 343.02-24.95 343.87-24.73 344.72-24.5 344.92-24.4L344.92-24.4 345.12-24.05Q345.02-23.5 344.67-21.58 344.32-19.65 344.17-17.45L344.17-17.45 342.22-17.25 341.92-17.45Q341.92-17.6 341.97-18.07 342.02-18.55 342.02-19.25L342.02-19.25Q342.02-21.2 341-21.98 339.97-22.75 337.37-22.75L337.37-22.75Q335.27-22.75 333.9-21.78 332.52-20.8 332.52-19.3L332.52-19.3Q332.52-17.8 333.9-16.75 335.27-15.7 338.07-14.35L338.07-14.35Q340.52-13.2 342-12.35 343.47-11.5 344.52-10.2 345.57-8.9 345.57-7.2L345.57-7.2Q345.57-4.95 344.25-3.23 342.92-1.5 340.55-0.53 338.17 0.45 335.12 0.45L335.12 0.45ZM351.22 0.4L351.47-1.7Q353.32-1.9 353.97-2.6 354.62-3.3 354.62-5L354.62-5 354.67-20.85Q354.67-22.1 354.37-22.53 354.07-22.95 353.17-22.95L353.17-22.95 351.82-22.9 351.72-23.1 352.02-25Q352.62-25 354.37-24.95 356.12-24.9 358.17-24.9L358.17-24.9Q366.52-24.9 370.52-25.35L370.52-25.35 370.67-25.1Q370.57-24.55 370.22-22.6 369.87-20.65 369.72-18.4L369.72-18.4 367.32-18.2Q367.32-18.4 367.37-18.88 367.42-19.35 367.42-19.85L367.42-19.85Q367.42-21.15 367.04-21.68 366.67-22.2 365.49-22.38 364.32-22.55 361.42-22.55L361.42-22.55Q360.07-22.55 359.57-22.48 359.07-22.4 358.92-22.13 358.77-21.85 358.72-21.1L358.72-21.1 358.42-14 362.52-13.95Q363.42-13.95 365.17-14.13 366.92-14.3 367.47-14.35L367.47-14.35 367.67-14.1 367.07-11.5Q366.52-11.5 364.89-11.55 363.27-11.6 361.47-11.6L361.47-11.6Q360.07-11.6 358.32-11.35L358.32-11.35Q358.17-7.55 358.17-4.5L358.17-4.5Q358.17-3.35 358.34-2.9 358.52-2.45 359.14-2.3 359.77-2.15 361.22-2.15L361.22-2.15Q364.47-2.15 365.87-2.45 367.27-2.75 367.84-3.68 368.42-4.6 368.77-6.85L368.77-6.85 370.97-7.05 371.17-6.8Q371.02-6.25 370.64-4.23 370.27-2.2 370.07 0L370.07 0 369.77 0.25Q368.42 0.2 364.17 0.1 359.92 0 357.27 0L357.27 0Q355.22 0 353.47 0.18 351.72 0.35 351.22 0.4L351.22 0.4ZM376.97 0.4L377.27-1.7Q378.87-1.95 379.44-2.63 380.02-3.3 380.02-5L380.02-5 380.06-20.85Q380.06-22.1 379.77-22.53 379.47-22.95 378.56-22.95L378.56-22.95 377.22-22.9 377.06-23.1 377.37-25Q377.62-25 378.87-24.95 380.12-24.9 382.22-24.9L382.22-24.9Q383.31-24.9 384.94-25.05 386.56-25.2 387.06-25.25L387.06-25.25 386.87-23.15Q385.52-23 384.97-22.68 384.42-22.35 384.31-21.85 384.22-21.35 384.06-19.8L384.06-19.8Q383.56-13.1 383.56-4.95L383.56-4.95Q383.56-3.7 383.79-3.13 384.02-2.55 384.69-2.35 385.37-2.15 386.81-2.15L386.81-2.15Q389.22-2.15 390.34-2.55 391.47-2.95 392.04-4.13 392.62-5.3 393.06-7.85L393.06-7.85 395.27-8.1 395.42-7.8Q395.31-7.15 394.94-4.83 394.56-2.5 394.27 0.05L394.27 0.05 394.02 0.35Q392.87 0.3 389.14 0.15 385.42 0 382.87 0L382.87 0Q380.87 0 379.14 0.18 377.42 0.35 376.97 0.4L376.97 0.4ZM397.71 0.45L397.96-1.6Q399.86-1.95 400.49-2.63 401.11-3.3 401.11-5L401.11-5 401.16-20.85Q401.16-22.1 400.86-22.53 400.56-22.95 399.66-22.95L399.66-22.95 398.31-22.9 398.21-23.1 398.51-25Q399.11-25 400.86-24.95 402.61-24.9 404.66-24.9L404.66-24.9Q412.41-24.9 416.16-25.35L416.16-25.35 416.36-25.1Q416.26-24.55 415.91-22.55 415.56-20.55 415.41-18.3L415.41-18.3 413.01-18.15Q413.01-18.35 413.06-18.85 413.11-19.35 413.11-19.85L413.11-19.85Q413.11-21.15 412.79-21.68 412.46-22.2 411.41-22.38 410.36-22.55 407.91-22.55L407.91-22.55Q406.56-22.55 406.06-22.48 405.56-22.4 405.41-22.13 405.26-21.85 405.21-21.1L405.21-21.1 404.86-13.35 409.01-13.3Q409.81-13.3 411.31-13.48 412.81-13.65 413.31-13.7L413.31-13.7 413.51-13.45 412.96-10.8Q412.46-10.8 411.01-10.85 409.56-10.9 407.96-10.9L407.96-10.9Q406.56-10.9 404.81-10.65L404.81-10.65 404.66-4.75Q404.66-3.2 405.01-2.68 405.36-2.15 406.46-2.15L406.46-2.15Q407.26-2.15 408.11-2.23 408.96-2.3 409.26-2.3L409.26-2.3 409.41-2.05 409.06 0.15Q408.41 0.1 406.59 0.05 404.76 0 402.86 0L402.86 0Q401.41 0 399.81 0.18 398.21 0.35 397.71 0.45L397.71 0.45ZM420.26 0.6Q418.91 0.6 418.19-0.23 417.46-1.05 417.46-2.25L417.46-2.25Q417.46-3.55 418.31-4.45 419.16-5.35 420.56-5.35L420.56-5.35Q421.91-5.35 422.66-4.53 423.41-3.7 423.41-2.5L423.41-2.5Q423.41-1.2 422.54-0.3 421.66 0.6 420.26 0.6L420.26 0.6Z" opacity="1" transform="matrix(1,0,0,1,0,0)" fill="black" class="slogan-text-1" id="SvgjsPath1023"></path></svg></g></svg></g></svg></g></svg></g><g></g></svg></g><defs><mask></mask></defs></svg><rect width="354.0048300909091" height="79.67942198920566" fill="black" stroke="none" visibility="hidden"></rect></g></mask><linearGradient x1="0.054" x2="0.941" y1="0.5" y2="0.5" id="9048d0bf-8c68-4608-b679-979cf17af9b3"><stop stop-color="#26282a" offset="0"></stop><stop stop-color="#9e9fa0" offset="0.498"></stop><stop stop-color="#26282a" offset="1"></stop></linearGradient><rect width="354.0048300909091" height="79.67942198920566" fill="url(#9048d0bf-8c68-4608-b679-979cf17af9b3)" mask="url(#676c2e05-3095-4f9e-bcf6-169c84e939e2)" data-fill-palette-color="primary"></rect></svg><rect width="354.0048300909091" height="79.67942198920566" fill="none" stroke="none" visibility="hidden"></rect></g></svg></g></svg>